<?xml version="1.0" encoding="UTF-8"?>
<!DOCTYPE svg PUBLIC "-//W3C//DTD SVG 1.1//EN" "http://www.w3.org/Graphics/SVG/1.1/DTD/svg11.dtd">
<svg xmlns="http://www.w3.org/2000/svg" version="1.1" width="305px" height="304px" style="shape-rendering:geometricPrecision; text-rendering:geometricPrecision; image-rendering:optimizeQuality; fillRule:evenodd; clipRule:evenodd" xmlns:xlink="http://www.w3.org/1999/xlink">
<g><path style="opacity:1" fill="#3f9592" d="M 135.5,-0.5 C 146.5,-0.5 157.5,-0.5 168.5,-0.5C 173.196,0.337464 177.863,1.33746 182.5,2.5C 184.905,3.7682 187.572,4.43487 190.5,4.5C 204.315,7.8818 217.315,13.2151 229.5,20.5C 229.821,22.0481 230.821,22.7148 232.5,22.5C 252.902,35.235 269.236,51.9017 281.5,72.5C 281.427,74.0269 282.094,75.0269 283.5,75.5C 284.674,76.5137 285.34,77.847 285.5,79.5C 285.427,81.0269 286.094,82.0269 287.5,82.5C 291.908,90.6665 295.241,99.3331 297.5,108.5C 297.41,111.152 298.076,113.485 299.5,115.5C 301.218,120.921 302.385,126.588 303,132.5C 303.5,142.828 303.666,153.161 303.5,163.5C 302.105,167.591 301.438,171.924 301.5,176.5C 297.346,204.136 286.179,228.469 268,249.5C 227.789,293.848 178.289,310.515 119.5,299.5C 117.095,298.232 114.428,297.565 111.5,297.5C 109.485,296.076 107.152,295.41 104.5,295.5C 94.8419,292.835 85.8419,288.835 77.5,283.5C 77.0269,282.094 76.0269,281.427 74.5,281.5C 73.5084,281.672 72.8417,281.338 72.5,280.5C 72.0269,279.094 71.0269,278.427 69.5,278.5C 51.5672,267.568 36.9006,253.235 25.5,235.5C 25.7148,233.821 25.0481,232.821 23.5,232.5C 21.9138,230.33 20.5804,227.996 19.5,225.5C 19.7148,223.821 19.0481,222.821 17.5,222.5C -0.171043,188.368 -4.50438,152.701 4.5,115.5C 6.2766,112.495 7.2766,109.162 7.5,105.5C 19.5144,67.9771 42.5144,39.1438 76.5,19C 83.2841,15.2731 90.2841,12.1064 97.5,9.5C 100.716,9.6545 103.383,8.6545 105.5,6.5C 105.833,6.5 106.167,6.5 106.5,6.5C 109.152,6.59047 111.485,5.92381 113.5,4.5C 116.152,4.59047 118.485,3.92381 120.5,2.5C 125.486,1.41856 130.486,0.418559 135.5,-0.5 Z"/></g>
<g><path style="opacity:0.302" fill="#c8e0e0" d="M 182.5,2.5 C 185.495,2.29379 188.162,2.96046 190.5,4.5C 187.572,4.43487 184.905,3.7682 182.5,2.5 Z"/></g>
<g><path style="opacity:1" fill="#acd0cf" d="M 120.5,2.5 C 118.485,3.92381 116.152,4.59047 113.5,4.5C 115.515,3.07619 117.848,2.40953 120.5,2.5 Z"/></g>
<g><path style="opacity:1" fill="#98c5c3" d="M 113.5,4.5 C 111.485,5.92381 109.152,6.59047 106.5,6.5C 108.515,5.07619 110.848,4.40953 113.5,4.5 Z"/></g>
<g><path style="opacity:1" fill="#95c3c1" d="M 105.5,6.5 C 103.383,8.6545 100.716,9.6545 97.5,9.5C 99.936,8.12904 102.603,7.12904 105.5,6.5 Z"/></g>
<g><path style="opacity:1" fill="#a2cac8" d="M 229.5,20.5 C 230.71,20.9321 231.71,21.5987 232.5,22.5C 230.821,22.7148 229.821,22.0481 229.5,20.5 Z"/></g>
<g><path style="opacity:0.835" fill="#bddad9" d="M 281.5,72.5 C 282.906,72.9731 283.573,73.9731 283.5,75.5C 282.094,75.0269 281.427,74.0269 281.5,72.5 Z"/></g>
<g><path style="opacity:1" fill="#fdfefd" d="M 28.5,80.5 C 40.747,80.1782 52.9136,80.5115 65,81.5C 71.3186,122.064 76.9853,162.731 82,203.5C 89.9783,162.29 98.8116,121.29 108.5,80.5C 118.749,80.1806 128.916,80.5139 139,81.5C 147.096,116.078 154.763,150.744 162,185.5C 169.044,150.611 176.211,115.778 183.5,81C 204.508,80.5688 225.508,80.9021 246.5,82C 276.086,86.0099 289.253,102.843 286,132.5C 281.437,157.476 266.937,173.309 242.5,180C 227.979,182.939 213.312,184.105 198.5,183.5C 195.068,201.423 192.068,219.423 189.5,237.5C 174.5,237.5 159.5,237.5 144.5,237.5C 136.756,201.929 129.422,166.263 122.5,130.5C 115.394,166.133 108.394,201.799 101.5,237.5C 86.4236,238.14 71.5902,237.474 57,235.5C 47.6555,183.792 38.1555,132.125 28.5,80.5 Z"/></g>
<g><path style="opacity:0.835" fill="#cce2e2" d="M 285.5,79.5 C 286.906,79.9731 287.573,80.9731 287.5,82.5C 286.094,82.0269 285.427,81.0269 285.5,79.5 Z"/></g>
<g><path style="opacity:1" fill="#3f9491" d="M 222.5,156.5 C 216.5,156.5 210.5,156.5 204.5,156.5C 204.5,155.167 204.5,153.833 204.5,152.5C 207.113,137.54 209.447,122.54 211.5,107.5C 221.233,107.109 230.9,107.609 240.5,109C 246.501,110.336 250.668,113.836 253,119.5C 256.527,143.111 246.36,155.445 222.5,156.5 Z"/></g>
<g><path style="opacity:1" fill="#90c0be" d="M 7.5,105.5 C 7.2766,109.162 6.2766,112.495 4.5,115.5C 4.7234,111.838 5.7234,108.505 7.5,105.5 Z"/></g>
<g><path style="opacity:0.902" fill="#b6d6d5" d="M 297.5,108.5 C 298.924,110.515 299.59,112.848 299.5,115.5C 298.076,113.485 297.41,111.152 297.5,108.5 Z"/></g>
<g><path style="opacity:1" fill="#98c6c4" d="M 204.5,152.5 C 204.5,153.833 204.5,155.167 204.5,156.5C 210.5,156.5 216.5,156.5 222.5,156.5C 216.355,157.49 210.022,157.823 203.5,157.5C 203.216,155.585 203.549,153.919 204.5,152.5 Z"/></g>
<g><path style="opacity:0.722" fill="#c4dedd" d="M 303.5,163.5 C 303.562,168.076 302.895,172.409 301.5,176.5C 301.438,171.924 302.105,167.591 303.5,163.5 Z"/></g>
<g><path style="opacity:1" fill="#a1c9c7" d="M 17.5,222.5 C 19.0481,222.821 19.7148,223.821 19.5,225.5C 18.5987,224.71 17.9321,223.71 17.5,222.5 Z"/></g>
<g><path style="opacity:1" fill="#a1c9c7" d="M 23.5,232.5 C 25.0481,232.821 25.7148,233.821 25.5,235.5C 24.5987,234.71 23.9321,233.71 23.5,232.5 Z"/></g>
<g><path style="opacity:0.835" fill="#b6d6d5" d="M 69.5,278.5 C 71.0269,278.427 72.0269,279.094 72.5,280.5C 70.9731,280.573 69.9731,279.906 69.5,278.5 Z"/></g>
<g><path style="opacity:0.835" fill="#b9d8d7" d="M 74.5,281.5 C 76.0269,281.427 77.0269,282.094 77.5,283.5C 75.9731,283.573 74.9731,282.906 74.5,281.5 Z"/></g>
<g><path style="opacity:1" fill="#acd0cf" d="M 104.5,295.5 C 107.152,295.41 109.485,296.076 111.5,297.5C 108.848,297.59 106.515,296.924 104.5,295.5 Z"/></g>
<g><path style="opacity:1" fill="#b3d5d3" d="M 111.5,297.5 C 114.428,297.565 117.095,298.232 119.5,299.5C 116.505,299.706 113.838,299.04 111.5,297.5 Z"/></g>
</svg>
